<svg width="272" height="165" viewBox="0 0 272 165" fill="none" xmlns="http://www.w3.org/2000/svg">
<g clip-path="url(#clip0_0_331)">
<path d="M136.304 54.5261C125.613 56.3588 116.708 62.4358 111.015 70.7385L103.425 81.8051L115.13 90.3558L122.945 78.9596C126.505 73.7691 132.072 69.9638 138.742 68.8205C151.845 66.5748 164.331 75.4363 166.572 88.5743C168.812 101.71 159.973 114.226 146.87 116.472C140.199 117.615 133.687 115.881 128.609 112.167C84.8184 80.1705 79.4049 76.2152 79.3398 76.1676C71.2179 70.2328 60.8052 67.4665 50.114 69.2992C29.1146 72.8984 14.9999 92.8844 18.5909 113.939C22.1814 134.99 42.1182 149.139 63.1175 145.54C73.8091 143.707 82.7131 137.63 88.4069 129.327L95.9969 118.26L84.2911 109.71L76.4761 121.103C72.9169 126.297 67.3495 130.102 60.6797 131.245C47.5767 133.491 35.0906 124.63 32.8503 111.494C30.6095 98.3564 39.4492 85.8392 52.5522 83.5936C59.2225 82.4502 65.7342 84.1851 70.8125 87.8952C72.7318 89.2977 119.621 123.562 120.082 123.898C128.204 129.833 138.616 132.599 149.308 130.767C170.307 127.168 184.422 107.182 180.832 86.1306C177.24 65.0763 157.303 50.9268 136.304 54.5261Z" fill="white" fill-opacity="0.4"/>
<path d="M136.304 54.5261C125.613 56.3588 116.708 62.4358 111.015 70.7385L103.425 81.8051L115.13 90.3558L122.945 78.9596C126.505 73.7691 132.072 69.9638 138.742 68.8205C151.845 66.5748 164.331 75.4363 166.572 88.5743C168.812 101.71 159.973 114.226 146.87 116.472C140.199 117.615 133.687 115.881 128.609 112.167C84.8184 80.1705 79.4049 76.2152 79.3398 76.1676C71.2179 70.2328 60.8052 67.4665 50.114 69.2992C29.1146 72.8984 14.9999 92.8844 18.5909 113.939C22.1814 134.99 42.1182 149.139 63.1175 145.54C73.8091 143.707 82.7131 137.63 88.4069 129.327L95.9969 118.26L84.2911 109.71L76.4761 121.103C72.9169 126.297 67.3495 130.102 60.6797 131.245C47.5767 133.491 35.0906 124.63 32.8503 111.494C30.6095 98.3564 39.4492 85.8392 52.5522 83.5936C59.2225 82.4502 65.7342 84.1851 70.8125 87.8952C72.7318 89.2977 119.621 123.562 120.082 123.898C128.204 129.833 138.616 132.599 149.308 130.767C170.307 127.168 184.422 107.182 180.832 86.1306C177.24 65.0763 157.303 50.9268 136.304 54.5261Z" fill="url(#paint0_linear_0_331)"/>
<g filter="url(#filter0_d_0_331)">
<path d="M54.3535 90.4238V113.263H58.2592V98.7763L70.7898 113.263H75.0209V90.4238H71.1152V104.029L59.2356 90.4238H54.3535ZM98.1092 105.4V99.853H83.8211V95.9704H98.7602V90.4238H79.9155V113.263H83.8211V105.4H98.1092ZM120.24 96.2967V90.4238H100.386V96.2967H108.002V113.263H112.591V96.2967H120.24ZM146.641 113.23V107.684H140.913V95.9704H146.641V90.4238H131.963V95.9704H137.659V107.684H131.963V113.23H137.659V113.263H140.913V113.23H146.641ZM149.578 94.9916V113.263H153.483V106.542C153.483 103.312 155.534 100.734 159.114 100.734C163.02 100.734 165.33 101.811 165.33 106.444V113.263H169.236V103.311C169.236 98.0912 166.535 94.5022 160.448 94.5022C157.519 94.5022 154.557 95.6441 153.646 98.5806H153.483L152.995 94.9916H149.578ZM180.461 113.817V100.049H186.97V113.263H190.876V94.9916H180.591C180.949 93.3276 181.925 92.5446 183.911 92.5446C186.287 92.5446 187.979 93.4581 188.89 94.0128L189.574 88.2378C188.5 87.4221 186.71 86.8674 184.236 86.8674C178.573 86.8674 176.555 89.7386 176.555 94.9916C175.871 94.9916 169.46 94.9916 171.836 94.9916V100.049H176.555V113.752L180.461 113.817ZM194.122 94.9916V113.263H198.028V106.542C198.028 103.312 200.079 100.734 203.659 100.734C207.564 100.734 209.875 101.811 209.875 106.444V113.263H213.781V103.311C213.781 98.0912 211.079 94.5022 204.993 94.5022C202.064 94.5022 199.102 95.6441 198.191 98.5806H198.028L197.54 94.9916H194.122ZM216.706 90.9458C216.706 92.5119 217.943 93.556 219.993 93.556C222.011 93.556 223.215 92.5119 223.215 90.9458C223.215 89.3471 222.076 88.2378 220.058 88.2378C218.008 88.2378 216.706 89.3471 216.706 90.9458ZM218.138 94.9916V113.263H222.044V94.9916H218.138ZM229.781 90.4238V94.9916H225.876L225.192 100.049H229.781V106.77C229.879 111.468 232.288 113.817 237.495 113.817C240.262 113.817 241.824 113.002 242.996 112.545L243.191 106.639C242.279 107.194 239.904 108.336 237.69 108.336C235.249 108.336 233.687 107.618 233.687 103.573V100.049H242.475V94.9916H233.687V90.4238H229.781ZM253.825 122.072C259.13 122.072 265.152 119.951 265.152 111.664V94.9916H261.246V101.713C261.246 104.943 259.196 107.52 255.615 107.52C251.71 107.52 249.399 106.444 249.399 101.811V94.9916H245.493V104.943C245.493 110.163 248.195 113.752 254.281 113.752C257.21 113.752 260.172 112.61 261.083 109.674H261.246V110.359C261.246 115.155 258.284 116.525 253.825 116.525C250.636 116.525 247.641 115.286 246.209 114.209L245.689 120.147C246.665 120.8 250.733 122.072 253.825 122.072Z" fill="white"/>
</g>
</g>
<defs>
<filter id="filter0_d_0_331" x="40.3535" y="76.8674" width="238.798" height="63.2046" filterUnits="userSpaceOnUse" color-interpolation-filters="sRGB">
<feFlood flood-opacity="0" result="BackgroundImageFix"/>
<feColorMatrix in="SourceAlpha" type="matrix" values="0 0 0 0 0 0 0 0 0 0 0 0 0 0 0 0 0 0 127 0" result="hardAlpha"/>
<feOffset dy="4"/>
<feGaussianBlur stdDeviation="7"/>
<feComposite in2="hardAlpha" operator="out"/>
<feColorMatrix type="matrix" values="0 0 0 0 0 0 0 0 0 0 0 0 0 0 0 0 0 0 0.3 0"/>
<feBlend mode="normal" in2="BackgroundImageFix" result="effect1_dropShadow_0_331"/>
<feBlend mode="normal" in="SourceGraphic" in2="effect1_dropShadow_0_331" result="shape"/>
</filter>
<linearGradient id="paint0_linear_0_331" x1="64.7642" y1="-223.916" x2="175.868" y2="139.272" gradientUnits="userSpaceOnUse">
<stop stop-color="white"/>
<stop offset="1" stop-color="#EA721C"/>
</linearGradient>
<clipPath id="clip0_0_331">
<rect width="272" height="165" fill="white"/>
</clipPath>
</defs>
</svg>
