<svg width="90" height="68" viewBox="0 0 90 68" fill="none" xmlns="http://www.w3.org/2000/svg">
<rect x="0.357323" y="0.479211" width="68" height="68" rx="9.5" transform="matrix(1 0 -0.285354 0.958422 20.3413 0.896878)" fill="#477BFF"/>
<rect x="0.357323" y="0.479211" width="68" height="68" rx="9.5" transform="matrix(1 0 -0.285354 0.958422 20.3413 0.896878)" fill="#EC8031"/>
<rect x="0.357323" y="0.479211" width="68" height="68" rx="9.5" transform="matrix(1 0 -0.285354 0.958422 20.3413 0.896878)" stroke="url(#paint0_linear_0_262)"/>
<path d="M33.3824 38.736C34.1364 38.7107 34.6415 39.2283 34.5493 39.9584L34.3751 41.3388C34.228 42.504 35.0114 43.3664 36.2401 43.3664H48.8681C50.0969 43.3664 51.3938 42.504 51.9405 41.3388L52.5882 39.9584C52.9308 39.2283 53.7441 38.7107 54.4831 38.736C57.3244 38.8332 60.1382 38.9392 61.9357 39.0085C62.7413 39.0396 63.1824 39.6997 62.9063 40.4987C61.9653 43.2216 60.1818 48.1322 58.6481 50.9561C58.0712 52.0183 56.9157 52.6593 55.6545 52.747C53.2866 52.9116 48.5737 53.1114 39.6527 53.1114C30.7317 53.1114 26.1377 52.9116 23.8679 52.747C22.6589 52.6593 21.8852 52.0183 21.9408 50.9561C22.0886 48.1322 23.2291 43.2216 23.9096 40.4987C24.1092 39.6997 24.9434 39.0396 25.7675 39.0085C27.6063 38.9392 30.4832 38.8332 33.3824 38.736Z" fill="#0B1846" stroke="url(#paint1_linear_0_262)"/>
<path d="M51.8192 26.7032L51.3245 26.715L51.1881 27.1859C51.0033 27.8238 50.7973 28.5257 50.5676 29.2972C49.6741 32.2982 49.0501 34.2451 48.6388 35.4676C48.266 36.5757 47.4773 37.4141 46.4935 37.5929C45.9115 37.6987 45.162 37.7768 44.2183 37.7768C43.2745 37.7768 42.5716 37.6987 42.0526 37.5929C41.1753 37.4141 40.8859 36.5757 41.1729 35.4676C41.4896 34.2451 42.0248 32.2982 42.9183 29.2972C43.148 28.5257 43.36 27.8238 43.555 27.186L43.6991 26.715L43.2113 26.7032C41.7681 26.6682 40.6078 26.617 39.68 26.5601C38.9052 26.5126 38.5158 26.1424 38.4364 25.702C38.3572 25.2621 38.5709 24.6609 39.2288 24.0619C40.2783 23.1062 41.6684 21.8914 43.4795 20.3944C46.1383 18.1969 48.0282 16.9205 49.2591 16.192C50.2929 15.5801 51.3606 15.5802 52.03 16.1921C52.8271 16.9207 53.9568 18.1971 55.3074 20.3944C56.2276 21.8917 56.8945 23.1068 57.375 24.0626C57.676 24.6614 57.5318 25.2625 57.1907 25.7022C56.8492 26.1425 56.2395 26.5125 55.4365 26.56C54.4747 26.617 53.2837 26.6682 51.8192 26.7032Z" fill="#EBBD18" stroke="url(#paint2_linear_0_262)"/>
<defs>
<linearGradient id="paint0_linear_0_262" x1="62.6503" y1="21.6627" x2="-21.575" y2="25.3042" gradientUnits="userSpaceOnUse">
<stop stop-color="#EB7826"/>
<stop offset="1" stop-color="#EB7826" stop-opacity="0"/>
</linearGradient>
<linearGradient id="paint1_linear_0_262" x1="58.9613" y1="43.0702" x2="11.6619" y2="34.3219" gradientUnits="userSpaceOnUse">
<stop stop-color="#EB7826"/>
<stop offset="1" stop-color="#EB7826" stop-opacity="0"/>
</linearGradient>
<linearGradient id="paint2_linear_0_262" x1="56.9337" y1="22.4755" x2="34.0253" y2="16.5161" gradientUnits="userSpaceOnUse">
<stop stop-color="#EB7826"/>
<stop offset="1" stop-color="#EB7826" stop-opacity="0"/>
</linearGradient>
</defs>
</svg>
