<svg width="104" height="40" viewBox="0 0 104 40" fill="none" xmlns="http://www.w3.org/2000/svg">
<rect x="0.52924" y="0.52924" width="102.942" height="38.9415" rx="19.4708" stroke="#ED8338" stroke-opacity="0.8" stroke-width="1.05848"/>
<path d="M85.654 19.1908L77.3812 11.3158C77.1583 11.1109 76.8597 10.9975 76.5499 11C76.24 11.0026 75.9436 11.1209 75.7245 11.3295C75.5053 11.5381 75.381 11.8203 75.3784 12.1152C75.3757 12.4102 75.4948 12.6944 75.7101 12.9066L81.9655 18.8612H61.1818C60.8684 18.8612 60.5678 18.9797 60.3461 19.1907C60.1245 19.4017 60 19.6878 60 19.9862C60 20.2845 60.1245 20.5707 60.3461 20.7817C60.5678 20.9926 60.8684 21.1112 61.1818 21.1112H81.9655L75.7101 27.0658C75.5972 27.1696 75.5072 27.2937 75.4452 27.431C75.3833 27.5682 75.3507 27.7158 75.3493 27.8652C75.3479 28.0146 75.3778 28.1627 75.4373 28.301C75.4967 28.4393 75.5844 28.5649 75.6954 28.6705C75.8064 28.7761 75.9383 28.8597 76.0836 28.9162C76.2288 28.9728 76.3844 29.0013 76.5414 29C76.6983 28.9987 76.8534 28.9676 76.9976 28.9087C77.1417 28.8497 77.2721 28.764 77.3812 28.6566L85.654 20.7816C85.8755 20.5706 86 20.2845 86 19.9862C86 19.6879 85.8755 19.4018 85.654 19.1908Z" fill="white" fill-opacity="0.8"/>
<path d="M18.346 19.1908L26.6188 11.3158C26.8417 11.1109 27.1403 10.9975 27.4501 11C27.76 11.0026 28.0564 11.1209 28.2755 11.3295C28.4947 11.5381 28.619 11.8203 28.6216 12.1152C28.6243 12.4102 28.5052 12.6944 28.2899 12.9066L22.0345 18.8612H42.8182C43.1316 18.8612 43.4322 18.9797 43.6539 19.1907C43.8755 19.4017 44 19.6878 44 19.9862C44 20.2845 43.8755 20.5707 43.6539 20.7817C43.4322 20.9926 43.1316 21.1112 42.8182 21.1112H22.0345L28.2899 27.0658C28.4028 27.1696 28.4928 27.2937 28.5548 27.431C28.6167 27.5682 28.6493 27.7158 28.6507 27.8652C28.6521 28.0146 28.6222 28.1627 28.5627 28.301C28.5033 28.4393 28.4156 28.5649 28.3046 28.6705C28.1936 28.7761 28.0617 28.8597 27.9164 28.9162C27.7712 28.9728 27.6156 29.0013 27.4586 29C27.3017 28.9987 27.1466 28.9676 27.0024 28.9087C26.8583 28.8497 26.7279 28.764 26.6188 28.6566L18.346 20.7816C18.1245 20.5706 18 20.2845 18 19.9862C18 19.6879 18.1245 19.4018 18.346 19.1908Z" fill="white" fill-opacity="0.8"/>
</svg>
