<svg width="91" height="67" viewBox="0 0 91 67" fill="none" xmlns="http://www.w3.org/2000/svg">
<rect x="0.357323" y="0.479211" width="68" height="68" rx="9.5" transform="matrix(1 0 -0.285354 0.958422 20.1975 0.0218776)" fill="#477BFF"/>
<rect x="0.357323" y="0.479211" width="68" height="68" rx="9.5" transform="matrix(1 0 -0.285354 0.958422 20.1975 0.0218776)" fill="#EC8031"/>
<rect x="0.357323" y="0.479211" width="68" height="68" rx="9.5" transform="matrix(1 0 -0.285354 0.958422 20.1975 0.0218776)" stroke="url(#paint0_linear_0_274)"/>
<path d="M32.8302 26.6868C43.5265 14.341 50.9481 7.8954 50.9481 7.8954C50.9481 7.8954 52.056 6.54331 54.1722 6.54326C56.2885 6.54321 56.5912 7.8954 56.5912 7.8954C56.5912 7.8954 60.1746 14.341 63.5195 26.6868C63.9953 28.4427 63.2866 30.5731 61.595 32.2054C59.3475 34.374 55.7261 37.6977 50.7822 41.6791L48.5433 44.4031L37.257 44.403L36.6401 41.6791C34.067 37.6977 32.4247 34.374 31.4686 32.2054C30.749 30.5731 31.3088 28.4427 32.8302 26.6868Z" fill="#EBBD18" stroke="url(#paint1_linear_0_274)" stroke-width="4"/>
<path d="M50.7822 41.68C52.6571 44.8843 53.5967 48.8324 53.9601 50.75C54.0936 51.4542 53.6759 52.274 52.8911 52.7459C50.6223 54.1099 45.5093 56.6852 39.2437 56.6852C32.978 56.6852 29.3984 54.1099 27.9419 52.7459C27.438 52.274 27.5086 51.4542 28.0614 50.75C29.5666 48.8324 32.8572 44.8843 36.6401 41.68C36.6401 41.68 39.0355 43.0713 43.2969 43.0713C47.5583 43.0713 50.7822 41.68 50.7822 41.68Z" fill="#0B1846"/>
<path d="M50.7822 41.68C52.6571 44.8843 53.5967 48.8324 53.9601 50.75C54.0936 51.4542 53.6759 52.274 52.8911 52.7459C50.6223 54.1099 45.5093 56.6852 39.2437 56.6852C32.978 56.6852 29.3984 54.1099 27.9419 52.7459C27.438 52.274 27.5086 51.4542 28.0614 50.75C29.5666 48.8324 32.8572 44.8843 36.6401 41.68C36.6401 41.68 39.0355 43.0713 43.2969 43.0713C47.5583 43.0713 50.7822 41.68 50.7822 41.68Z" stroke="url(#paint2_linear_0_274)"/>
<path d="M55.3024 6.70552C54.4423 10.2023 52.506 18.0412 50.8038 24.6962C51.046 24.8588 51.2601 25.0595 51.4381 25.2983C52.5545 26.7954 51.8317 29.2228 49.8239 30.7199C47.8161 32.2171 45.2834 32.2171 44.167 30.7199C43.0507 29.2228 43.7734 26.7954 45.7813 25.2983C46.1015 25.0595 46.435 24.8588 46.7741 24.6962C49.0374 18.0333 51.7727 10.1837 52.9927 6.69308C53.3424 6.60183 53.7358 6.54435 54.1721 6.54434C54.628 6.54433 54.9997 6.60706 55.3024 6.70552Z" fill="#0B1846"/>
<defs>
<linearGradient id="paint0_linear_0_274" x1="62.6503" y1="21.6627" x2="-21.575" y2="25.3042" gradientUnits="userSpaceOnUse">
<stop stop-color="#EB7826"/>
<stop offset="1" stop-color="#EB7826" stop-opacity="0"/>
</linearGradient>
<linearGradient id="paint1_linear_0_274" x1="38.8145" y1="40.7322" x2="73.7908" y2="11.354" gradientUnits="userSpaceOnUse">
<stop stop-color="#EB7826"/>
<stop offset="1" stop-color="#EB7826" stop-opacity="0"/>
</linearGradient>
<linearGradient id="paint2_linear_0_274" x1="35.2005" y1="58.6691" x2="58.5181" y2="39.0836" gradientUnits="userSpaceOnUse">
<stop stop-color="#EB7826"/>
<stop offset="1" stop-color="#EB7826" stop-opacity="0"/>
</linearGradient>
</defs>
</svg>
