<svg width="25" height="25" viewBox="0 0 25 25" fill="none" xmlns="http://www.w3.org/2000/svg">
<path fill-rule="evenodd" clip-rule="evenodd" d="M16.3374 2.57762C16.9878 2.57762 17.6372 2.66936 18.2546 2.87654C22.0591 4.11345 23.4301 8.28804 22.2849 11.9369C21.6355 13.8016 20.5738 15.5034 19.1833 16.8939C17.1929 18.8214 15.0087 20.5325 12.6576 22.0065L12.3999 22.1621L12.1319 21.9961C9.77245 20.5325 7.57589 18.8214 5.56694 16.8836C4.18572 15.4931 3.123 13.8016 2.46331 11.9369C1.29855 8.28804 2.66947 4.11345 6.51524 2.85489C6.81416 2.75182 7.12236 2.67966 7.43159 2.63946H7.55528C7.84492 2.5972 8.13251 2.57762 8.42112 2.57762H8.5345C9.18388 2.5972 9.81265 2.71059 10.4218 2.91777H10.4826C10.5239 2.93735 10.5548 2.959 10.5754 2.97858C10.8032 3.05177 11.0186 3.13423 11.2248 3.24761L11.6165 3.42284C11.7111 3.47332 11.8174 3.55045 11.9092 3.61711C11.9674 3.65935 12.0197 3.69738 12.0597 3.72176C12.0765 3.73169 12.0936 3.74167 12.1109 3.75173C12.1992 3.80332 12.2913 3.85706 12.3689 3.91658C13.5141 3.04146 14.9046 2.56731 16.3374 2.57762ZM19.0792 9.99908C19.5018 9.98775 19.8626 9.64862 19.8935 9.21467V9.09201C19.9244 7.64791 19.0493 6.33988 17.7186 5.8348C17.296 5.68947 16.8321 5.91726 16.6775 6.35018C16.5332 6.7831 16.76 7.25726 17.1929 7.41084C17.8536 7.65822 18.2958 8.30863 18.2958 9.02914V9.06109C18.2762 9.29713 18.3474 9.52493 18.4917 9.70016C18.636 9.87539 18.8524 9.97744 19.0792 9.99908Z" fill="#F32D12"/>
<path fill-rule="evenodd" clip-rule="evenodd" d="M16.3374 2.57762C16.9878 2.57762 17.6372 2.66936 18.2546 2.87654C22.0591 4.11345 23.4301 8.28804 22.2849 11.9369C21.6355 13.8016 20.5738 15.5034 19.1833 16.8939C17.1929 18.8214 15.0087 20.5325 12.6576 22.0065L12.3999 22.1621L12.1319 21.9961C9.77245 20.5325 7.57589 18.8214 5.56694 16.8836C4.18572 15.4931 3.123 13.8016 2.46331 11.9369C1.29855 8.28804 2.66947 4.11345 6.51524 2.85489C6.81416 2.75182 7.12236 2.67966 7.43159 2.63946H7.55528C7.84492 2.5972 8.13251 2.57762 8.42112 2.57762H8.5345C9.18388 2.5972 9.81265 2.71059 10.4218 2.91777H10.4826C10.5239 2.93735 10.5548 2.959 10.5754 2.97858C10.8032 3.05177 11.0186 3.13423 11.2248 3.24761L11.6165 3.42284C11.7111 3.47332 11.8174 3.55045 11.9092 3.61711C11.9674 3.65935 12.0197 3.69738 12.0597 3.72176C12.0765 3.73169 12.0936 3.74167 12.1109 3.75173C12.1992 3.80332 12.2913 3.85706 12.3689 3.91658C13.5141 3.04146 14.9046 2.56731 16.3374 2.57762ZM19.0792 9.99908C19.5018 9.98775 19.8626 9.64862 19.8935 9.21467V9.09201C19.9244 7.64791 19.0493 6.33988 17.7186 5.8348C17.296 5.68947 16.8321 5.91726 16.6775 6.35018C16.5332 6.7831 16.76 7.25726 17.1929 7.41084C17.8536 7.65822 18.2958 8.30863 18.2958 9.02914V9.06109C18.2762 9.29713 18.3474 9.52493 18.4917 9.70016C18.636 9.87539 18.8524 9.97744 19.0792 9.99908Z" fill="#130F26"/>
<path fill-rule="evenodd" clip-rule="evenodd" d="M16.3374 2.57762C16.9878 2.57762 17.6372 2.66936 18.2546 2.87654C22.0591 4.11345 23.4301 8.28804 22.2849 11.9369C21.6355 13.8016 20.5738 15.5034 19.1833 16.8939C17.1929 18.8214 15.0087 20.5325 12.6576 22.0065L12.3999 22.1621L12.1319 21.9961C9.77245 20.5325 7.57589 18.8214 5.56694 16.8836C4.18572 15.4931 3.123 13.8016 2.46331 11.9369C1.29855 8.28804 2.66947 4.11345 6.51524 2.85489C6.81416 2.75182 7.12236 2.67966 7.43159 2.63946H7.55528C7.84492 2.5972 8.13251 2.57762 8.42112 2.57762H8.5345C9.18388 2.5972 9.81265 2.71059 10.4218 2.91777H10.4826C10.5239 2.93735 10.5548 2.959 10.5754 2.97858C10.8032 3.05177 11.0186 3.13423 11.2248 3.24761L11.6165 3.42284C11.7111 3.47332 11.8174 3.55045 11.9092 3.61711C11.9674 3.65935 12.0197 3.69738 12.0597 3.72176C12.0765 3.73169 12.0936 3.74167 12.1109 3.75173C12.1992 3.80332 12.2913 3.85706 12.3689 3.91658C13.5141 3.04146 14.9046 2.56731 16.3374 2.57762ZM19.0792 9.99908C19.5018 9.98775 19.8626 9.64862 19.8935 9.21467V9.09201C19.9244 7.64791 19.0493 6.33988 17.7186 5.8348C17.296 5.68947 16.8321 5.91726 16.6775 6.35018C16.5332 6.7831 16.76 7.25726 17.1929 7.41084C17.8536 7.65822 18.2958 8.30863 18.2958 9.02914V9.06109C18.2762 9.29713 18.3474 9.52493 18.4917 9.70016C18.636 9.87539 18.8524 9.97744 19.0792 9.99908Z" fill="white" fill-opacity="0.86"/>
</svg>
