<svg width="22" height="21" viewBox="0 0 22 21" fill="none" xmlns="http://www.w3.org/2000/svg">
<path fill-rule="evenodd" clip-rule="evenodd" d="M12.5719 17.3258C8.66552 17.9445 4.76054 15.3293 3.85173 11.4728C2.94457 7.62316 5.37868 3.99672 9.28502 3.37801C13.1984 2.75819 17.098 5.38148 18.0052 9.23107C18.914 13.0876 16.4853 16.706 12.5719 17.3258ZM13.7956 12.5817C13.892 12.617 13.9906 12.6304 14.0897 12.6147C14.2666 12.5867 14.4221 12.468 14.4818 12.2849C14.5729 12.0173 14.4194 11.7088 14.1285 11.5957L11.2608 10.5163L10.5015 7.29435C10.4325 7.00145 10.1377 6.80942 9.84753 6.85537C9.55738 6.90133 9.371 7.16957 9.44003 7.46248L10.27 10.9843C10.3127 11.1656 10.4512 11.3173 10.637 11.3892L13.7956 12.5817Z" fill="#EEEEEE" fill-opacity="0.7"/>
</svg>
