<svg width="22" height="21" viewBox="0 0 22 21" fill="none" xmlns="http://www.w3.org/2000/svg">
<path fill-rule="evenodd" clip-rule="evenodd" d="M8.66907 10.9924C9.01967 12.4802 10.5408 13.495 12.0666 13.2533C13.5855 13.0127 14.536 11.6065 14.1855 10.1187C13.8333 8.62419 12.3122 7.60943 10.7933 7.85C9.26746 8.09167 8.31688 9.4979 8.66907 10.9924ZM14.5119 5.75982C15.9368 6.48817 17.2826 7.67099 18.4182 9.23786C18.5037 9.3576 18.5388 9.50638 18.5122 9.63685C17.8284 13.2386 15.6728 15.6705 12.7455 16.1341L12.7386 16.1352C9.81812 16.5978 6.71275 14.9992 4.44165 11.8654C4.35773 11.7524 4.32267 11.6037 4.34763 11.4664C5.03148 7.86465 7.18864 5.43955 10.1091 4.97699L10.116 4.9759C11.5797 4.74408 13.0853 5.02471 14.5119 5.75982ZM11.828 12.2373C12.7739 12.0875 13.3686 11.2076 13.1503 10.2811C12.9304 9.34789 11.9787 8.71295 11.0328 8.86276C10.9499 8.87588 10.8687 8.89577 10.7959 8.92132C10.9436 9.66958 10.4625 10.3631 9.69612 10.4845L9.6616 10.4899C9.66639 10.6014 9.67808 10.7118 9.70517 10.8268C9.9235 11.7533 10.8752 12.3882 11.828 12.2373Z" fill="#EEEEEE" fill-opacity="0.7"/>
</svg>
