<svg width="26" height="21" viewBox="0 0 26 21" fill="none" xmlns="http://www.w3.org/2000/svg">
<path fill-rule="evenodd" clip-rule="evenodd" d="M17.678 2.68684C18.2161 2.68684 18.7378 2.76112 19.2135 2.92889C22.1512 3.93048 22.5768 7.31084 21.0099 10.2655C20.1561 11.7754 18.9888 13.1534 17.6024 14.2794C15.6284 15.8402 13.5308 17.2257 11.3354 18.4193L11.0958 18.5453L10.9022 18.4109C9.19862 17.2257 7.67177 15.8402 6.33861 14.271C5.43191 13.1451 4.83981 11.7754 4.61055 10.2655C4.2663 7.31084 6.10918 3.93048 9.50463 2.91136C9.76944 2.8279 10.0367 2.76947 10.2993 2.73692H10.4017C10.6485 2.7027 10.8897 2.68684 11.1285 2.68684H11.2223C11.7563 2.7027 12.2572 2.79451 12.7261 2.96228H12.7764C12.8072 2.97813 12.8291 2.99566 12.8428 3.01152C13.0189 3.07078 13.1831 3.13755 13.3344 3.22937L13.6287 3.37126C13.6985 3.41213 13.7733 3.47459 13.8379 3.52856C13.8789 3.56276 13.9157 3.59356 13.9447 3.61331C13.9569 3.62135 13.9694 3.62943 13.9819 3.63758C14.0463 3.67935 14.1133 3.72287 14.1675 3.77106C15.2635 3.06244 16.4944 2.67849 17.678 2.68684ZM18.6866 8.69637C19.0382 8.68719 19.3943 8.41259 19.4935 8.0612L19.5143 7.96187C19.7851 6.79252 19.2831 5.73334 18.2679 5.32436C17.9429 5.20667 17.5204 5.39113 17.319 5.74169C17.1262 6.09224 17.2333 6.47618 17.5654 6.60055C18.07 6.80086 18.3255 7.32753 18.2032 7.91096L18.1977 7.93683C18.1415 8.12797 18.1616 8.31243 18.2513 8.45432C18.3409 8.59621 18.5027 8.67884 18.6866 8.69637Z" fill="#F32D12"/>
</svg>
