<svg width="26" height="21" viewBox="0 0 26 21" fill="none" xmlns="http://www.w3.org/2000/svg">
<path fill-rule="evenodd" clip-rule="evenodd" d="M11.1032 19.1477C6.39574 19.1477 3.35734 15.4168 4.32497 10.8011C5.29084 6.19384 9.89528 2.45457 14.6027 2.45457C19.3187 2.45457 22.3468 6.19384 21.381 10.8011C20.4133 15.4168 15.8192 19.1477 11.1032 19.1477ZM14.9242 13.8977C15.0143 13.9561 15.1182 13.9895 15.2376 13.9895C15.4508 13.9895 15.6867 13.881 15.8481 13.6807C16.0884 13.3886 16.0751 13.0046 15.8066 12.821L13.1416 11.0515L13.95 7.19543C14.0235 6.84487 13.7913 6.56944 13.4416 6.56944C13.092 6.56944 12.7443 6.84487 12.6708 7.19543L11.7872 11.4104C11.7417 11.6275 11.8191 11.8278 11.9907 11.9446L14.9242 13.8977Z" fill="#EEEEEE" fill-opacity="0.7"/>
</svg>
