<svg width="25" height="21" viewBox="0 0 25 21" fill="none" xmlns="http://www.w3.org/2000/svg">
<path fill-rule="evenodd" clip-rule="evenodd" d="M9.01976 10.801C8.64647 12.5816 9.83204 14.0304 11.6708 14.0304C13.5012 14.0304 15.2942 12.5816 15.6674 10.801C16.0424 9.01234 14.8569 7.56358 13.0265 7.56358C11.1877 7.56358 9.39474 9.01234 9.01976 10.801ZM18.2817 5.83154C19.507 6.93227 20.409 8.54291 20.8767 10.5582C20.9111 10.712 20.8737 10.8901 20.7766 11.0357C18.1512 15.0664 14.4756 17.4783 10.9479 17.4783H10.9396C7.42026 17.4783 4.75597 15.0664 3.82047 11.0357C3.78445 10.8901 3.82178 10.712 3.92058 10.5582C6.54604 6.52759 10.2199 4.12378 13.7393 4.12378H13.7476C15.5114 4.12378 17.0582 4.72271 18.2817 5.83154ZM11.9266 12.8146C13.0665 12.8146 14.1884 11.9081 14.4208 10.7992C14.655 9.68233 13.9132 8.77584 12.7733 8.77584C12.6735 8.77584 12.5719 8.78393 12.477 8.80012C12.2571 9.69042 11.359 10.4027 10.4355 10.4027H10.3939C10.3418 10.5322 10.298 10.6617 10.2691 10.7992C10.0367 11.9081 10.7785 12.8146 11.9266 12.8146Z" fill="#EEEEEE" fill-opacity="0.7"/>
</svg>
