<svg width="26" height="26" viewBox="0 0 26 26" fill="none" xmlns="http://www.w3.org/2000/svg">
<path fill-rule="evenodd" clip-rule="evenodd" d="M8.96504 13.1972C8.96504 15.3962 10.7651 17.1854 12.9875 17.1854C15.1999 17.1854 17 15.3962 17 13.1972C17 10.9883 15.1999 9.19913 12.9875 9.19913C10.7651 9.19913 8.96504 10.9883 8.96504 13.1972ZM18.9006 7.06017C20.6604 8.41953 22.1588 10.4086 23.2348 12.8974C23.3153 13.0873 23.3153 13.3072 23.2348 13.4871C21.0828 18.4648 17.2514 21.4434 12.9875 21.4434H12.9775C8.72369 21.4434 4.89227 18.4648 2.74024 13.4871C2.65979 13.3072 2.65979 13.0873 2.74024 12.8974C4.89227 7.91977 8.72369 4.95117 12.9775 4.95117H12.9875C15.1194 4.95117 17.1407 5.69082 18.9006 7.06017ZM12.9887 15.6839C14.3664 15.6839 15.4927 14.5645 15.4927 13.1951C15.4927 11.8158 14.3664 10.6963 12.9887 10.6963C12.8681 10.6963 12.7474 10.7063 12.6368 10.7263C12.5965 11.8257 11.6915 12.7053 10.5752 12.7053H10.525C10.4948 12.8653 10.4747 13.0252 10.4747 13.1951C10.4747 14.5645 11.601 15.6839 12.9887 15.6839Z" fill="white" fill-opacity="0.86"/>
</svg>
