<svg width="63" height="47" viewBox="0 0 63 47" fill="none" xmlns="http://www.w3.org/2000/svg">
<path d="M43.1576 7.13152C43.0021 6.36463 42.9945 5.49657 43.5357 4.69681C44.7342 2.92559 46.414 2.34187 47.5712 2.15881C48.4492 2.0199 49.1602 2.37552 49.5148 3.0049C51.869 7.18384 51.8814 16.8698 48.8843 26.2202C47.2003 31.474 44.898 35.3818 41.4453 39.1582C39.2888 41.5168 36.389 43.1743 33.4383 43.6837C30.7422 44.1491 27.0387 44.514 22.8859 44.1537C20.6659 43.9611 18.5787 43.3884 16.9901 42.2189C13.4791 39.6343 11.7624 35.485 12.9362 29.5137C13.229 28.0242 14.3211 26.5231 15.9314 25.9844C16.3298 25.8512 16.7708 25.7306 17.2494 25.6386C18.8624 25.3285 19.6173 26.6734 19.658 28.1013C19.7554 31.5239 22.3301 33.7139 25.7773 32.7902C26.5341 32.5338 27.3119 32.1387 28.0164 31.7227C29.7391 30.7054 30.8876 28.8854 30.5817 27.348C29.9184 24.0139 26.609 22.7571 21.7302 24.4086C20.7176 24.7514 19.6513 24.9046 19.0084 24.3674C18.766 24.1649 18.5162 23.9043 18.2921 23.5716C17.2144 21.9717 18.8706 19.4606 21.1787 18.4062C26.1566 16.1319 31.3803 15.6417 35.1279 17.2273C34.2529 14.5159 32.945 12.0437 31.1057 10.1567C30.3994 9.43212 29.9588 8.40864 30.4771 7.27601C31.2101 5.67413 32.3467 4.85584 33.2113 4.445C33.9828 4.0784 34.7438 4.20624 35.3341 4.52915C39.4359 6.77287 41.8795 9.40711 43.3404 12.3435C43.5227 10.4092 43.4581 8.61254 43.1576 7.13152Z" fill="#0B1846"/>
</svg>
