<svg width="261" height="262" viewBox="0 0 261 262" fill="none" xmlns="http://www.w3.org/2000/svg">
<g filter="url(#filter0_d_0_328)">
<path d="M126.438 100.608C131.35 124.533 124.686 132.934 100.297 137.941C128.955 132.057 133.66 142.599 138.906 161.341C134.246 138.643 137.743 131.532 160.051 125.673C135.158 128.227 130.72 121.466 126.438 100.608Z" fill="white"/>
<path d="M126.438 100.608C131.35 124.533 124.686 132.934 100.297 137.941C128.955 132.057 133.66 142.599 138.906 161.341C134.246 138.643 137.743 131.532 160.051 125.673C135.158 128.227 130.72 121.466 126.438 100.608Z" fill="url(#paint0_linear_0_328)"/>
</g>
<defs>
<filter id="filter0_d_0_328" x="0.29718" y="0.60791" width="259.754" height="260.733" filterUnits="userSpaceOnUse" color-interpolation-filters="sRGB">
<feFlood flood-opacity="0" result="BackgroundImageFix"/>
<feColorMatrix in="SourceAlpha" type="matrix" values="0 0 0 0 0 0 0 0 0 0 0 0 0 0 0 0 0 0 127 0" result="hardAlpha"/>
<feOffset/>
<feGaussianBlur stdDeviation="50"/>
<feComposite in2="hardAlpha" operator="out"/>
<feColorMatrix type="matrix" values="0 0 0 0 1 0 0 0 0 1 0 0 0 0 1 0 0 0 0.25 0"/>
<feBlend mode="normal" in2="BackgroundImageFix" result="effect1_dropShadow_0_328"/>
<feBlend mode="normal" in="SourceGraphic" in2="effect1_dropShadow_0_328" result="shape"/>
</filter>
<linearGradient id="paint0_linear_0_328" x1="73.4876" y1="-79.4216" x2="225.405" y2="98.6451" gradientUnits="userSpaceOnUse">
<stop stop-color="white"/>
<stop offset="1" stop-color="#EA721C"/>
</linearGradient>
</defs>
</svg>
